<?xml version="1.0" encoding="utf-8"?>
<!-- Generator: Adobe Illustrator 27.5.0, SVG Export Plug-In . SVG Version: 6.00 Build 0)  -->
<svg version="1.1" xmlns="http://www.w3.org/2000/svg" xmlns:xlink="http://www.w3.org/1999/xlink" x="0px" y="0px"
	 viewBox="0 0 2200 2200" style="enable-background:new 0 0 2200 2200;" xml:space="preserve">
<g id="background">
	<rect style="fill:#FFFFFF;" width="2200" height="2200"/>
</g>
<g id="Objects">
	<g>
		<g>
			<path style="fill:#1E2833;" d="M1715.489,827.444c-15.363,5.101-24.113,21.361-19.74,36.947
				c15.211,54.22,22.907,110.405,22.907,167.418c0,83.549-16.347,164.56-48.588,240.785
				c-31.157,73.66-75.774,139.829-132.614,196.669c-56.84,56.84-123.009,101.457-196.669,132.614
				c-76.225,32.24-157.237,48.588-240.786,48.588s-164.56-16.347-240.786-48.588c-73.66-31.157-139.829-75.775-196.669-132.614
				c-56.84-56.84-101.457-123.009-132.614-196.669c-32.241-76.225-48.588-157.237-48.588-240.785
				c0-83.549,16.347-164.561,48.588-240.786c31.157-73.66,75.774-139.83,132.614-196.669
				c56.84-56.839,123.009-101.457,196.669-132.613c76.225-32.241,157.237-48.588,240.786-48.588
				c90.725,0,178.105,19.169,259.712,56.974c53.637,24.848,102.784,56.763,146.848,95.28l-49.987,50.554
				c-26.233,26.518-9.135,71.591,28.086,74.047l217.822,14.377c26.452,1.744,48.308-20.365,46.269-46.795l-16.823-217.646
				c-2.884-37.188-48.133-53.781-74.366-27.252l-50.661,51.236c-16.236-14.503-33.073-28.322-50.456-41.363
				c-42.593-31.957-88.62-59.478-136.805-81.8c-100.524-46.568-208.065-70.18-319.639-70.18
				c-102.732,0-202.43,20.137-296.323,59.851c-90.655,38.344-172.056,93.221-241.943,163.108
				c-69.886,69.887-124.764,151.288-163.108,241.942c-39.713,93.893-59.85,193.591-59.85,296.323
				c0,102.732,20.137,202.43,59.85,296.323c38.344,90.655,93.222,172.056,163.108,241.943
				c69.887,69.886,151.289,124.764,241.943,163.108c93.893,39.714,193.591,59.85,296.323,59.85s202.43-20.136,296.323-59.85
				c90.655-38.344,172.056-93.222,241.943-163.108c69.886-69.887,124.764-151.289,163.108-241.943
				c39.714-93.893,59.85-193.591,59.85-296.323c0-71.333-9.822-141.672-29.229-209.543c-4.768-16.674-22.41-26.067-38.869-20.602
				L1715.489,827.444z"/>
			<path style="fill:#1E2833;" d="M1110.235,582.656h-20.471c-6.816,0-12.342-5.526-12.342-12.342v-89.94
				c0-6.816,5.526-12.342,12.342-12.342h20.471c6.816,0,12.342,5.526,12.342,12.342v89.94
				C1122.578,577.13,1117.052,582.656,1110.235,582.656z"/>
			<path style="fill:#1E2833;" d="M650.846,1021.574v20.471c0,6.816-5.526,12.342-12.342,12.342h-89.94
				c-6.816,0-12.342-5.526-12.342-12.342v-20.471c0-6.816,5.526-12.342,12.342-12.342h89.94
				C645.321,1009.232,650.846,1014.758,650.846,1021.574z"/>
			<path style="fill:#1E2833;" d="M1089.765,1480.964h20.471c6.816,0,12.342,5.526,12.342,12.342v89.94
				c0,6.816-5.526,12.342-12.342,12.342h-20.471c-6.816,0-12.342-5.526-12.342-12.342v-89.94
				C1077.422,1486.489,1082.948,1480.964,1089.765,1480.964z"/>
			<path style="fill:#1E2833;" d="M1549.154,1042.045v-20.471c0-6.816,5.526-12.342,12.342-12.342h89.94
				c6.816,0,12.342,5.526,12.342,12.342v20.471c0,6.816-5.526,12.342-12.342,12.342h-89.94
				C1554.679,1054.387,1549.154,1048.862,1549.154,1042.045z"/>
			<path style="fill:#C64242;" d="M1358.525,966.755c-4.741,7.178-11.634,13.037-20.218,16.489l-221.939,89.265
				c-21.397,8.606-45.804-0.826-55.853-21.585l-185.22-382.627c-10.556-21.804-1.437-48.042,20.371-58.597
				c21.807-10.556,48.041-1.436,58.598,20.37l167.371,345.756l183.934-73.98c22.477-9.04,48.028,1.853,57.068,24.331
				C1368.225,940.069,1366.197,955.137,1358.525,966.755z"/>
		</g>
		<ellipse style="fill:#CCD4DB;" cx="1100" cy="1896.375" rx="496.432" ry="33.039"/>
	</g>
</g>
</svg>
